<svg width="229" height="63" viewBox="0 0 229 63" fill="none" xmlns="http://www.w3.org/2000/svg">
<rect x="84" y="5" width="139" height="58" rx="6" fill="#F32929"/>
<path d="M111.547 48H108.227V34.543H93.2266V48H89.9062V19.4453H93.2266V31.6133H108.227V19.4453H111.547V48ZM135.297 48H119.398V19.4453H135.297V22.375H122.719V31.6133H134.574V34.5039H122.719V45.0703H135.297V48ZM164.301 33.4492C164.301 36.6654 163.715 39.3542 162.543 41.5156C161.371 43.6641 159.672 45.2852 157.445 46.3789C155.232 47.4596 152.543 48 149.379 48H141.625V19.4453H150.238C153.142 19.4453 155.642 19.9792 157.738 21.0469C159.835 22.1016 161.449 23.6706 162.582 25.7539C163.728 27.8242 164.301 30.3893 164.301 33.4492ZM160.805 33.5664C160.805 31.0013 160.375 28.8854 159.516 27.2188C158.669 25.5521 157.419 24.3151 155.766 23.5078C154.125 22.6875 152.113 22.2773 149.73 22.2773H144.945V45.1484H148.988C152.921 45.1484 155.87 44.1784 157.836 42.2383C159.815 40.2982 160.805 37.4076 160.805 33.5664ZM182.855 33.0391H192.836V46.8867C191.339 47.3945 189.796 47.7721 188.207 48.0195C186.632 48.2669 184.867 48.3906 182.914 48.3906C179.945 48.3906 177.439 47.7982 175.395 46.6133C173.363 45.4284 171.82 43.7422 170.766 41.5547C169.711 39.3542 169.184 36.7435 169.184 33.7227C169.184 30.7669 169.763 28.1888 170.922 25.9883C172.094 23.7878 173.78 22.082 175.98 20.8711C178.194 19.6471 180.85 19.0352 183.949 19.0352C185.538 19.0352 187.042 19.1849 188.461 19.4844C189.893 19.7708 191.221 20.181 192.445 20.7148L191.176 23.6055C190.121 23.1497 188.956 22.7591 187.68 22.4336C186.417 22.1081 185.108 21.9453 183.754 21.9453C181.423 21.9453 179.424 22.4271 177.758 23.3906C176.104 24.3542 174.835 25.7148 173.949 27.4727C173.077 29.2305 172.641 31.3138 172.641 33.7227C172.641 36.1055 173.025 38.1823 173.793 39.9531C174.561 41.7109 175.759 43.0781 177.387 44.0547C179.014 45.0312 181.111 45.5195 183.676 45.5195C184.965 45.5195 186.072 45.4479 186.996 45.3047C187.921 45.1484 188.76 44.9661 189.516 44.7578V36.0078H182.855V33.0391ZM215.648 48H199.75V19.4453H215.648V22.375H203.07V31.6133H214.926V34.5039H203.07V45.0703H215.648V48Z" fill="white"/>
<path d="M13.4297 33.9141L22.5469 16.7344H26.8359L15.4219 37.7109V51H11.4375V37.8984L0 16.7344H4.35938L13.4297 33.9141ZM53.1094 38.1094C53.1094 40.2188 52.8359 42.1016 52.2891 43.7578C51.7422 45.4141 50.9531 46.8125 49.9219 47.9531C48.8906 49.0938 47.6406 49.9688 46.1719 50.5781C44.7188 51.1719 43.0703 51.4688 41.2266 51.4688C39.5078 51.4688 37.9297 51.1719 36.4922 50.5781C35.0703 49.9688 33.8359 49.0938 32.7891 47.9531C31.7578 46.8125 30.9531 45.4141 30.375 43.7578C29.8125 42.1016 29.5312 40.2188 29.5312 38.1094C29.5312 35.2969 30.0078 32.9062 30.9609 30.9375C31.9141 28.9531 33.2734 27.4453 35.0391 26.4141C36.8203 25.3672 38.9375 24.8438 41.3906 24.8438C43.7344 24.8438 45.7812 25.3672 47.5312 26.4141C49.2969 27.4609 50.6641 28.9766 51.6328 30.9609C52.6172 32.9297 53.1094 35.3125 53.1094 38.1094ZM33.5625 38.1094C33.5625 40.1719 33.8359 41.9609 34.3828 43.4766C34.9297 44.9922 35.7734 46.1641 36.9141 46.9922C38.0547 47.8203 39.5234 48.2344 41.3203 48.2344C43.1016 48.2344 44.5625 47.8203 45.7031 46.9922C46.8594 46.1641 47.7109 44.9922 48.2578 43.4766C48.8047 41.9609 49.0781 40.1719 49.0781 38.1094C49.0781 36.0625 48.8047 34.2969 48.2578 32.8125C47.7109 31.3125 46.8672 30.1562 45.7266 29.3438C44.5859 28.5312 43.1094 28.125 41.2969 28.125C38.625 28.125 36.6641 29.0078 35.4141 30.7734C34.1797 32.5391 33.5625 34.9844 33.5625 38.1094ZM81.0469 25.3125V51H77.8594L77.2969 47.3906H77.0859C76.5547 48.2812 75.8672 49.0312 75.0234 49.6406C74.1797 50.25 73.2266 50.7031 72.1641 51C71.1172 51.3125 70 51.4688 68.8125 51.4688C66.7812 51.4688 65.0781 51.1406 63.7031 50.4844C62.3281 49.8281 61.2891 48.8125 60.5859 47.4375C59.8984 46.0625 59.5547 44.2969 59.5547 42.1406V25.3125H63.4922V41.8594C63.4922 44 63.9766 45.6016 64.9453 46.6641C65.9141 47.7109 67.3906 48.2344 69.375 48.2344C71.2812 48.2344 72.7969 47.875 73.9219 47.1562C75.0625 46.4375 75.8828 45.3828 76.3828 43.9922C76.8828 42.5859 77.1328 40.8672 77.1328 38.8359V25.3125H81.0469Z" fill="white"/>
</svg>
